<?xml version="1.0" encoding="utf-8"?>
<!-- Generator: Adobe Illustrator 25.0.0, SVG Export Plug-In . SVG Version: 6.00 Build 0)  -->
<svg version="1.1" id="icon" xmlns="http://www.w3.org/2000/svg" xmlns:xlink="http://www.w3.org/1999/xlink" x="0px" y="0px"
	 viewBox="0 0 100 100" style="enable-background:new 0 0 100 100;" xml:space="preserve">
<style type="text/css">
	.st0{fill:#0479EC;}
	.st1{enable-background:new    ;}
</style>
<polygon class="st0" points="1.9,94.3 90.4,94.3 90.4,76.3 82,76.3 82,85.8 10.3,85.8 10.3,14.2 82,14.2 82,24.4 90.4,24.4 
	90.4,5.7 1.9,5.7 "/>
<g class="st1">
	<path class="st0" d="M40.6,63.9H26.1l-2.5,8.2H12.2l16.1-43.9h10l16.2,43.9H43.2L40.6,63.9z M28.6,55.8h9.4l-4.7-15.2L28.6,55.8z"
		/>
	<path class="st0" d="M94.4,72.1H83.9L68.3,44.8v27.3H57.7V28.2h10.6l15.5,27.3V28.2h10.6V72.1z"/>
</g>
</svg>
