<?xml version="1.0" encoding="utf-8"?>
<!-- Generator: Adobe Illustrator 25.0.0, SVG Export Plug-In . SVG Version: 6.00 Build 0)  -->
<svg version="1.1" id="icon" xmlns="http://www.w3.org/2000/svg" xmlns:xlink="http://www.w3.org/1999/xlink" x="0px" y="0px"
	 viewBox="0 0 100 100" style="enable-background:new 0 0 100 100;" xml:space="preserve">
<style type="text/css">
	.st0{fill:#0479EC;}
	.st1{enable-background:new    ;}
</style>
<polygon class="st0" points="2.5,95.1 95.3,95.1 95.3,76.3 86.5,76.3 86.5,86.3 11.3,86.3 11.3,11.2 86.5,11.2 86.5,21.8 95.3,21.8 
	95.3,2.3 2.5,2.3 "/>
<g class="st1">
	<path class="st0" d="M54.2,56.3c-0.1,2.4-0.6,4.6-1.5,6.6s-2.2,3.7-3.9,5.1s-3.6,2.5-5.9,3.3c-2.3,0.8-4.9,1.2-7.7,1.2
		c-3.1,0-5.8-0.5-8.2-1.5c-2.4-1-4.5-2.5-6.1-4.4c-1.7-1.9-3-4.3-3.8-7.1c-0.9-2.8-1.3-5.9-1.3-9.3v-2.5c0-3.5,0.5-6.6,1.4-9.3
		c0.9-2.8,2.2-5.1,3.9-7.1c1.7-1.9,3.7-3.4,6.1-4.5s5-1.6,8-1.6c3,0,5.6,0.4,8,1.2c2.3,0.8,4.3,2,5.9,3.5s2.9,3.2,3.8,5.2
		c0.9,2,1.5,4.2,1.7,6.6H43.2c0-1.3-0.2-2.4-0.5-3.4c-0.3-1-0.8-1.8-1.4-2.5c-0.7-0.7-1.5-1.1-2.5-1.5c-1-0.3-2.3-0.5-3.7-0.5
		c-1.4,0-2.6,0.3-3.6,0.8c-1,0.5-1.9,1.3-2.5,2.4c-0.7,1.1-1.2,2.5-1.5,4.3c-0.3,1.7-0.5,3.8-0.5,6.3v2.6c0,2.4,0.1,4.5,0.4,6.3
		c0.3,1.7,0.8,3.1,1.4,4.3c0.6,1.1,1.5,1.9,2.5,2.4c1,0.5,2.3,0.8,3.8,0.8c2.6,0,4.5-0.6,5.9-1.8c1.3-1.2,2.1-3.1,2.2-5.7H54.2z"/>
	<path class="st0" d="M76.5,55.7h-6v16.3H59.4v-46h18.1c2.7,0,5.1,0.3,7.2,0.9s4,1.5,5.5,2.7s2.7,2.6,3.5,4.3s1.2,3.7,1.2,6
		c0,1.8-0.2,3.3-0.6,4.7c-0.4,1.4-0.9,2.6-1.6,3.6s-1.6,2-2.5,2.7c-1,0.8-2.1,1.4-3.3,2l9.6,18.6v0.5H84.6L76.5,55.7z M70.5,47.1h7
		c2.1,0,3.7-0.6,4.8-1.7c1.1-1.1,1.6-2.7,1.6-4.6c0-2-0.5-3.5-1.6-4.7s-2.7-1.7-4.7-1.7h-7V47.1z"/>
</g>
</svg>
