<svg xmlns="http://www.w3.org/2000/svg" width="36.5" height="31.016" viewBox="0 0 36.5 31.016">
  <g>
    <path fill="none" stroke="rgb(130,130,130)" stroke-dasharray="0 0 0 0" stroke-linecap="round" stroke-linejoin="miter" stroke-width="1" d="M13.79985337 28.22800587s.83577713-1.15835778 1.04105572-2.3020528"/>
    <path fill="none" stroke="rgb(130,130,130)" stroke-dasharray="0 0 0 0" stroke-linecap="round" stroke-linejoin="miter" stroke-width="1" d="M22.65615836 28.22800587s-.83577713-1.15835778-1.04105572-2.3020528"/>
    <path fill="none" stroke="rgb(130,130,130)" stroke-dasharray="0 0 0 0" stroke-linecap="round" stroke-linejoin="round" stroke-width="1.5" d="M33.91715543 25.72067449H2.58284457C1.57111437 25.72067449.75 24.89956012.75 23.8878299V2.58284457C.75 1.57111437 1.57111437.75 2.58284457.75h31.33431086C34.92888563.75 35.75 1.57111437 35.75 2.58284457v21.30498534c0 1.0117302-.82111437 1.83284458-1.83284457 1.83284458h0z"/>
    <path fill="none" stroke="rgb(130,130,130)" stroke-dasharray="0 0 0 0" stroke-linecap="round" stroke-linejoin="round" stroke-width="1.5" d="M12.67082111 28.66788856H23.8585044c.83577712 0 1.51026393.6744868 1.51026393 1.51026393v.08797654H11.16055718v-.08797654c0-.83577712.6744868-1.51026393 1.51026393-1.51026393h0z"/>
    <rect width="29.457" height="17.023" x="3.521" y="3.36" fill="none" stroke="rgb(130,130,130)" stroke-dasharray="0 0 0 0" stroke-linecap="round" stroke-linejoin="miter" stroke-width="1" rx="0" ry="0"/>
    <ellipse cx="18.257" cy="22.876" fill="none" stroke="rgb(130,130,130)" stroke-dasharray="0 0 0 0" stroke-linecap="round" stroke-linejoin="miter" stroke-width="1" rx=".792" ry=".792"/>
  </g>
</svg>
