<svg xmlns="http://www.w3.org/2000/svg" width="23.64" height="24.05" viewBox="0 0 23.64 24.05">
  <g>
    <path fill="rgb(219,65,50)" fill-rule="evenodd" d="M1.35 6.66c.19-.4.42-.79.67-1.16.4-.62.86-1.2 1.37-1.73C4.56 2.54 5.92 1.6 7.49.95 8.6.49 9.75.21 10.94.1c1.08-.1 2.16-.06 3.23.12 1.38.24 2.67.7 3.88 1.41.69.41 1.33.88 1.93 1.42.11.1.1.16.01.25-.52.51-1.03 1.02-1.55 1.53l-1.65 1.65c-.07.07-.12.1-.21.02-1.05-.96-2.28-1.51-3.69-1.67-1.46-.15-2.84.11-4.12.81-1.5.82-2.58 2.03-3.24 3.6-.07.16-.13.33-.2.5-.15-.12-.31-.23-.46-.35-.49-.38-.99-.77-1.48-1.15-.68-.53-1.36-1.05-2.04-1.58z"/>
    <path fill="rgb(83,173,68)" fill-rule="evenodd" d="M12.84 24.01c-.61.04-1.21.03-1.81-.02-.82-.07-1.63-.22-2.41-.46-.76-.24-1.5-.53-2.21-.92-.9-.49-1.73-1.07-2.48-1.77-.85-.8-1.59-1.69-2.18-2.7-.14-.23-.26-.47-.39-.7.02-.02.03-.05.05-.06.68-.49 1.31-1.03 1.98-1.54.37-.28.74-.56 1.09-.86.27-.23.58-.42.85-.66.17.41.33.83.54 1.22.38.67.85 1.27 1.41 1.81.66.64 1.43 1.12 2.27 1.45.68.27 1.38.42 2.12.46.78.04 1.56-.02 2.32-.2.74-.18 1.44-.46 2.08-.88.03-.02.07-.03.1-.05.01.02.01.06.03.07.32.19.59.45.89.67.46.34.91.7 1.37 1.05h.01c.01 0 .01 0 .01.01.03.21.16.31.36.3.02.01.03.02.05.03 0 .06.04.08.09.08.03.08.07.15.17.15.01 0 .02 0 .02.01 0 .04.03.06.07.06.01.01.03.02.04.03-.01.03-.07.04-.05.09.05.02.07-.04.11-.05.01.02.03.04.04.06.04.12.14.16.25.19.03.01.07.02.08.05.01.03.02.07.04.08.15.09.06.18.01.27-.05.08-.18.09-.22.17-.11.22-.35.28-.51.43-.24.22-.54.35-.81.54-.06.04-.14.05-.15.14-.03.01-.06.02-.09.04-.15.01-.27.11-.42.16-.22.07-.4.21-.63.29-.09.03-.18.09-.28.12-.21.07-.43.14-.62.22-.26.11-.55.12-.81.23-.21.09-.46.1-.69.16-.28.06-.56.1-.85.12-.24.02-.48.04-.7.12h-.06c-.04-.06-.06-.05-.08-.01z"/>
    <path fill="rgb(92,117,184)" fill-rule="evenodd" d="M19.7 20.91c-.02-.03-.05-.04-.08-.05-.06-.09-.14-.17-.25-.19-.01-.02-.03-.04-.04-.06-.02-.01-.04-.02-.05-.04-.01-.01-.03-.02-.04-.03-.01-.03-.03-.06-.07-.06-.01-.01-.01-.01-.02-.01-.04-.07-.09-.12-.17-.15-.02-.04-.05-.07-.09-.08-.02-.01-.03-.02-.05-.03-.12-.1-.22-.22-.36-.3 0-.01-.01-.01-.01-.01-.45-.35-.9-.71-1.37-1.05-.3-.22-.57-.47-.89-.67-.02-.01-.02-.04-.03-.07.64-.46 1.19-1 1.61-1.67.36-.58.6-1.2.75-1.87.03-.13.01-.18-.15-.18-2.03.01-4.06 0-6.09 0-.21 0-.21 0-.22-.21V9.94c0-.15.04-.2.2-.2h10.88c.15 0 .2.05.22.19.23 1.47.26 2.93.04 4.4-.25 1.73-.81 3.34-1.76 4.81-.47.72-1.01 1.39-1.66 1.96-.09-.06-.18-.14-.3-.19z"/>
    <path fill="rgb(238,192,0)" fill-rule="evenodd" d="M5.32 14.33c-.27.24-.58.42-.85.66-.35.3-.72.58-1.09.86-.67.5-1.31 1.05-1.98 1.54-.02.01-.03.04-.05.06-.33-.63-.58-1.28-.78-1.96-.41-1.35-.57-2.73-.49-4.13.06-.97.22-1.93.52-2.86.2-.63.43-1.25.75-1.83.68.52 1.36 1.04 2.04 1.57.49.38.98.76 1.48 1.15.15.12.31.23.46.35-.07.32-.16.64-.23.96-.11.55-.15 1.09-.13 1.65.01.44.09.87.18 1.29.05.23.13.45.17.69z"/>
    <path fill="rgb(127,179,112)" fill-rule="evenodd" d="M12.97 24.01c.23-.08.47-.1.7-.12.29-.02.58-.06.85-.12.23-.05.48-.07.69-.16.26-.11.54-.12.81-.23.2-.08.41-.15.62-.22.1-.03.19-.09.28-.12.22-.07.41-.22.63-.29.14-.05.26-.15.42-.16-.02.07-.07.09-.13.12-.66.33-1.34.62-2.05.83-.47.14-.95.23-1.42.32s-.93.13-1.4.15z"/>
    <path fill="rgb(127,179,112)" fill-rule="evenodd" d="M19.7 20.91c.12.05.21.13.29.23-.19.24-.43.41-.66.6-.25.2-.52.38-.79.55-.16.09-.29.24-.48.26.01-.09.09-.1.15-.14.27-.18.57-.31.81-.54.16-.15.4-.21.51-.43.04-.08.17-.09.22-.17.05-.09.15-.18-.01-.27-.02-.02-.02-.06-.04-.09z"/>
    <path fill="rgb(127,179,112)" fill-rule="evenodd" d="M12.84 24.01c.02-.04.04-.05.07 0-.02.02-.05.02-.07 0z"/>
    <path fill="rgb(127,179,112)" fill-rule="evenodd" d="M18.47 19.93c.14.07.24.2.36.3-.2.02-.33-.09-.36-.3z"/>
    <path fill="rgb(127,179,112)" fill-rule="evenodd" d="M19.37 20.67c.12.02.19.1.25.19-.11-.03-.21-.06-.25-.19z"/>
    <path fill="rgb(127,179,112)" fill-rule="evenodd" d="M18.98 20.34c.08.02.13.08.17.15-.1-.01-.15-.07-.17-.15z"/>
    <path fill="rgb(127,179,112)" fill-rule="evenodd" d="M19.27 20.58c.02.01.04.02.05.04-.04.01-.06.06-.11.05 0-.06.06-.06.06-.09z"/>
    <path fill="rgb(127,179,112)" fill-rule="evenodd" d="M18.88 20.26c.04.01.07.04.09.08-.05 0-.09-.02-.09-.08z"/>
    <path fill="rgb(127,179,112)" fill-rule="evenodd" d="M19.17 20.5c.04 0 .06.02.07.06-.05 0-.07-.02-.07-.06z"/>
    <path fill="rgb(127,179,112)" fill-rule="evenodd" d="M18.45 19.93v-.01l.01.01h-.01z"/>
  </g>
</svg>
