<?xml version="1.0" encoding="utf-8"?>
<!-- Generator: Adobe Illustrator 25.0.0, SVG Export Plug-In . SVG Version: 6.00 Build 0)  -->
<svg version="1.1" id="icon" xmlns="http://www.w3.org/2000/svg" xmlns:xlink="http://www.w3.org/1999/xlink" x="0px" y="0px"
	 viewBox="0 0 100 100" style="enable-background:new 0 0 100 100;" xml:space="preserve">
<style type="text/css">
	.st0{fill:#0479EC;}
	.st1{enable-background:new    ;}
</style>
<polygon class="st0" points="2.1,95.6 92.7,95.6 92.7,77.1 84.1,77.1 84.1,86.9 10.6,86.9 10.6,13.4 84.1,13.4 84.1,24 92.7,24 
	92.7,4.8 2.1,4.8 "/>
<g class="st1">
	<path class="st0" d="M53.7,72.9H43V54.1H27v18.8H16.1v-45H27v17.9h16V27.9h10.8V72.9z"/>
	<path class="st0" d="M77.3,57h-5.9v15.9H60.6v-45h17.7c2.6,0,4.9,0.3,7,0.9c2.1,0.6,3.9,1.5,5.4,2.6s2.6,2.6,3.4,4.2
		c0.8,1.7,1.2,3.6,1.2,5.9c0,1.7-0.2,3.3-0.6,4.6s-0.9,2.5-1.6,3.6c-0.7,1-1.5,1.9-2.5,2.7c-1,0.8-2,1.4-3.2,2l9.4,18.1v0.5H85.3
		L77.3,57z M71.5,48.6h6.9c2.1,0,3.6-0.5,4.7-1.6c1-1.1,1.6-2.6,1.6-4.5c0-1.9-0.5-3.5-1.6-4.6c-1.1-1.1-2.6-1.7-4.6-1.7h-6.9V48.6z
		"/>
</g>
</svg>
