<svg xmlns="http://www.w3.org/2000/svg" width="21.96" height="25.5" viewBox="0 0 21.96 25.5">
  <g>
    <path fill="none" stroke="rgb(87,87,86)" stroke-dasharray="0 0 0 0" stroke-linecap="round" stroke-linejoin="round" stroke-width="1.5" d="M19.65 17.07h-.87V11.3c0-3.47-2.27-6.42-5.41-7.42v-.74c0-1.32-1.07-2.39-2.39-2.39S8.59 1.82 8.59 3.14v.74c-3.14.98-5.41 3.95-5.41 7.42v5.77h-.87c-.86 0-1.56.69-1.56 1.55v.2c0 .86.7 1.56 1.56 1.56h17.34c.86 0 1.56-.7 1.56-1.56v-.2c0-.86-.7-1.55-1.56-1.55h0z"/>
    <path fill="none" stroke="rgb(87,87,86)" stroke-dasharray="0 0 0 0" stroke-linecap="round" stroke-linejoin="round" stroke-width="1.5" d="M7.86 20.38v1.26c0 1.72 1.39 3.11 3.11 3.11s3.11-1.39 3.11-3.11v-1.26H7.86h0z"/>
  </g>
</svg>
