<svg xmlns="http://www.w3.org/2000/svg" width="25.48" height="25.5" viewBox="0 0 25.48 25.5">
  <g>
    <path fill="none" stroke="rgb(87,87,86)" stroke-dasharray="0 0 0 0" stroke-linecap="round" stroke-linejoin="round" stroke-width="1.5" d="M2.37 10.14c-1.45 0-1.62.99-1.62 1.73v1.76c0 1.2.5 1.73 1.62 1.73h1.51c.21.7.5 1.37.86 2l-1.11 1.11c-.36.3-.59.73-.65 1.2.02.46.23.88.58 1.17l1.39 1.39c.3.35.73.56 1.19.58.46-.06.88-.29 1.19-.65l1.2-1.21c.52.27 1.06.49 1.62.65v1.42c0 1.2.5 1.73 1.62 1.73h1.97c1.11 0 1.62-.53 1.62-1.73v-1.41c.56-.17 1.1-.38 1.62-.65l1.24 1.25c.83.83 1.57.86 2.37.07l1.39-1.39c.34-.28.54-.69.57-1.13 0-.52-.35-.93-.65-1.24l-1.16-1.16c.37-.63.65-1.3.86-2h1.51c1.11 0 1.62-.53 1.62-1.73v-1.77c0-.8-.18-1.73-1.62-1.73h-1.5c-.17-.56-.39-1.1-.66-1.62l1.11-1.11c.32-.32.66-.72.66-1.24-.04-.44-.24-.85-.58-1.13l-1.38-1.38c-.3-.34-.73-.54-1.18-.56-.46.06-.89.29-1.19.64l-1.02 1.02c-.63-.36-1.3-.65-2-.86V2.48c0-.81-.18-1.73-1.62-1.73h-1.97c-1.45 0-1.62.99-1.62 1.73v1.41c-.7.21-1.37.5-2 .86L7.14 3.73c-.3-.35-.73-.58-1.19-.64-.45.01-.88.21-1.18.55L3.38 5.03c-.34.29-.55.69-.58 1.13 0 .51.33.91.66 1.24l1.11 1.11c-.27.52-.48 1.06-.65 1.62l-1.55.01h0z"/>
    <ellipse cx="12.74" cy="12.75" fill="none" stroke="rgb(87,87,86)" stroke-dasharray="0 0 0 0" stroke-linecap="round" stroke-linejoin="round" stroke-width="1.5" rx="5.48" ry="5.48"/>
  </g>
</svg>
