<svg xmlns="http://www.w3.org/2000/svg" width="19.461" height="18.705" viewBox="0 0 19.461 18.705">
  <path fill="none" stroke="rgb(87,87,86)" stroke-dasharray="0 0 0 0" stroke-linecap="butt" stroke-linejoin="miter" stroke-width="1" d="M9.91988262 2.54150424l2.08108108 4.22522523c.06306307.06306306.06306307.12612613.1891892.12612613l4.66666666.69369369c.18918919 0 .25225225.25225225.12612613.37837838l-3.34234235 3.27927928c-.06306306.06306306-.06306306.12612612-.06306306.18918919l.81981982 4.6036036c0 .18918919-.18918919.31531531-.31531532.25225225L9.7937565 14.0820448c-.06306307-.06306307-.12612613-.06306307-.1891892 0l-4.16216216 2.2072072c-.18918918.06306306-.37837837-.06306306-.31531531-.25225225l.75675676-4.6036036c0-.06306307 0-.12612613-.06306307-.1891892L2.47844118 7.9018646c-.12612613-.12612612-.06306306-.31531531.12612613-.37837837l4.66666666-.6936937c.06306307 0 .12612613-.06306306.1891892-.12612612l2.08108107-4.22522523c.06306307-.12612613.25225226-.12612613.37837838.06306306h0z"/>
</svg>
