<?xml version="1.0" encoding="utf-8"?>
<!-- Generator: Adobe Illustrator 25.0.0, SVG Export Plug-In . SVG Version: 6.00 Build 0)  -->
<svg version="1.1" id="Layer_1" xmlns="http://www.w3.org/2000/svg" xmlns:xlink="http://www.w3.org/1999/xlink" x="0px" y="0px"
	 viewBox="0 0 228.3 89.5" style="enable-background:new 0 0 228.3 89.5;" xml:space="preserve">
<style type="text/css">
	.st0{fill:#121212;}
</style>
<g>
	<polygon class="st0" points="6.5,83.3 84.2,83.3 84.2,67.5 76.8,67.5 76.8,75.9 13.9,75.9 13.9,13 76.8,13 76.8,22 84.2,22 
		84.2,5.6 6.5,5.6 	"/>
	<path class="st0" d="M39.1,21.2H21.3v15.7v7.4V60h17.7c6.4,0,11.6-5.2,11.6-11.6c0-3-1.2-5.8-3.1-7.9c1.9-2.1,3.1-4.8,3.1-7.9
		C50.6,26.3,45.4,21.2,39.1,21.2z M28.7,28.6h10.3c2.3,0,4.2,1.9,4.2,4.2s-1.9,4.2-4.2,4.2H28.7V28.6z M39.1,52.6H28.7v-8.3h10.3
		c2.3,0,4.2,1.9,4.2,4.2S41.4,52.6,39.1,52.6z"/>
	<path class="st0" d="M104.2,29.4c-8.5,0-15.4,6.9-15.4,15.4s6.9,15.4,15.4,15.4s15.4-6.9,15.4-15.4S112.7,29.4,104.2,29.4z
		 M104.2,52.7c-4.4,0-8-3.6-8-8s3.6-8,8-8s8,3.6,8,8S108.6,52.7,104.2,52.7z"/>
	<path class="st0" d="M204.9,29.4c-8.5,0-15.4,6.9-15.4,15.4s6.9,15.4,15.4,15.4s15.4-6.9,15.4-15.4S213.3,29.4,204.9,29.4z
		 M204.9,52.7c-4.4,0-8-3.6-8-8s3.6-8,8-8s8,3.6,8,8S209.2,52.7,204.9,52.7z"/>
	<path class="st0" d="M139.4,29.4c-2.9,0-5.6,0.8-8,2.2v-2.3H124v45.4h7.4V57.9c2.3,1.4,5,2.2,8,2.2c8.5,0,15.4-6.9,15.4-15.4
		S147.9,29.4,139.4,29.4z M139.4,52.7c-4.4,0-8-3.6-8-8s3.6-8,8-8s8,3.6,8,8S143.8,52.7,139.4,52.7z"/>
	<path class="st0" d="M76.8,29.4v16.2c0,3.9-3.2,7.1-7.1,7.1c-3.9,0-7.1-3.2-7.1-7.1V29.4h-7.4v16.2c0,8,6.5,14.5,14.5,14.5
		c2.6,0,5-0.7,7.1-1.9v1.9h7.4V45.6V29.4v0L76.8,29.4L76.8,29.4z"/>
	<path class="st0" d="M167.6,38c0-1.8,1.5-2.9,4.4-2.9c3.1,0,4.9,1.6,5.2,4h7.4c-0.4-6.1-4.9-10.2-12.4-10.2
		c-7.6,0-12.2,4.1-12.2,9.2c0,11.3,17.4,7.8,17.4,13.3c0,1.8-1.7,3.2-4.7,3.2c-3.1,0-5.3-1.8-5.5-4.1h-7.8
		c0.3,5.7,5.7,10.2,13.4,10.2c7.5,0,12.1-4,12.1-9.3C184.6,40.1,167.6,43.6,167.6,38z"/>
</g>
</svg>
